HIERARCHY
ROOT hip
{
	OFFSET 0.000000 0.000000 0.000000 
	CHANNELS 6 Xposition Yposition Zposition Xrotation Zrotation Yrotation
	JOINT abdomen
	{
		OFFSET 0.000000 3.402643 0.000000 
		CHANNELS 3 Xrotation Zrotation Yrotation
		JOINT chest
		{
			OFFSET 0.000000 8.438565 -0.680529 
			CHANNELS 3 Xrotation Zrotation Yrotation
			JOINT neck
			{
				OFFSET 0.000000 10.207942 -0.272212 
				CHANNELS 3 Xrotation Zrotation Yrotation
				JOINT head
				{
					OFFSET 0.000000 3.130431 0.000000 
					CHANNELS 3 Xrotation Zrotation Yrotation
					End Site
					{
						OFFSET 0.000000 3.130435 0.000000 
					}
				}
			}
			JOINT lCollar
			{
				OFFSET 3.470700 6.669187 -0.816635 
				CHANNELS 3 Yrotation Zrotation Xrotation
				JOINT lShldr
				{
					OFFSET 3.198488 0.000000 0.000000 
					CHANNELS 3 Zrotation Yrotation Xrotation
					JOINT lForeArm
					{
						OFFSET 10.139888 0.000000 0.000000 
						CHANNELS 3 Yrotation Zrotation Xrotation
						JOINT lHand
						{
							OFFSET 8.370511 0.000000 0.000000 
							CHANNELS 3 Zrotation Yrotation Xrotation
							End Site
							{
								OFFSET 4.083176 0.000000 0.000000 
							}
						}
					}
				}
			}
			JOINT rCollar
			{
				OFFSET -3.470700 6.669187 -0.816635 
				CHANNELS 3 Yrotation Zrotation Xrotation
				JOINT rShldr
				{
					OFFSET -3.198488 0.000000 0.000000 
					CHANNELS 3 Zrotation Yrotation Xrotation
					JOINT rForeArm
					{
						OFFSET -10.139888 0.000000 0.000000 
						CHANNELS 3 Yrotation Zrotation Xrotation
						JOINT rHand
						{
							OFFSET -8.370511 0.000000 0.000000 
							CHANNELS 3 Zrotation Yrotation Xrotation
							End Site
							{
								OFFSET -4.083176 0.000000 0.000000 
							}
						}
					}
				}
			}
		}
	}
	JOINT lThigh
	{
		OFFSET 5.308129 -1.633274 1.361059 
		CHANNELS 3 Xrotation Zrotation Yrotation
		JOINT lShin
		{
			OFFSET -2.041588 -20.007561 0.000000 
			CHANNELS 3 Xrotation Zrotation Yrotation
			JOINT lFoot
			{
				OFFSET 0.000000 -19.190928 -1.224953 
				CHANNELS 3 Xrotation Yrotation Zrotation
				End Site
				{
					OFFSET 0.000000 -2.449906 4.627600 
				}
			}
		}
	}
	JOINT rThigh
	{
		OFFSET -5.308129 -1.633274 1.361059 
		CHANNELS 3 Xrotation Zrotation Yrotation
		JOINT rShin
		{
			OFFSET 2.041588 -20.007561 0.000000 
			CHANNELS 3 Xrotation Zrotation Yrotation
			JOINT rFoot
			{
				OFFSET 0.000000 -19.190928 -1.224953 
				CHANNELS 3 Xrotation Yrotation Zrotation
				End Site
				{
					OFFSET 0.000000 -2.449906 4.627600 
				}
			}
		}
	}
}
MOTION
Frames: 10
Frame Time: 0.011111
10.723940 54.902035 18.864904 -6.873474 6.774481 -129.459045 23.377121 -4.187316 4.826659 -41.241459 -0.823533 1.635753 -26.903351 6.663888 1.116243 58.299988 -1.833697 2.027691 -5.130234 -1.441212 0.239105 -62.880299 -17.960522 23.999176 -58.921181 9.175774 11.920765 8.524705 12.647240 -51.956429 -0.248815 -3.576873 1.747659 65.662453 7.099794 33.247894 55.516510 -8.757717 10.447502 -8.534408 -12.637552 52.181499 5.953786 -3.047775 -41.221848 -5.073181 -5.865067 0.031296 -49.115356 -6.519670 -3.944489 -4.607730 -12.829816 15.071637 5.633697 5.992919 1.491804 -33.370327 -6.484533 -2.650214 
10.730487 54.899967 18.845613 -6.735158 6.851204 -129.790100 23.558329 -4.040076 5.100447 -41.476151 -0.929405 1.709610 -26.681021 6.336591 1.235040 57.439106 -1.134442 2.528953 -5.130234 -1.441212 0.239105 -62.881741 -17.028271 23.059319 -58.760105 9.154425 11.843480 8.524705 12.647240 -52.307991 -0.248815 -3.576873 1.747659 65.457291 7.574390 34.278713 56.268505 -8.867279 10.768721 -8.534408 -12.637552 52.454941 6.006136 -2.783276 -41.206009 -5.038057 -5.857090 0.017498 -49.708481 -6.398509 -3.704402 -4.705786 -12.537822 15.088074 5.732042 5.993561 1.500620 -33.075840 -6.661450 -2.654880 
10.774236 54.906170 18.870415 -6.766247 6.791720 -131.102829 23.832678 -4.438161 6.000606 -41.689369 -0.967103 1.998062 -26.481728 6.035261 1.315861 56.352623 -0.444702 2.998626 -5.130234 -1.441212 0.239105 -62.812542 -16.393557 22.049931 -58.442001 9.124385 11.703042 8.524705 12.647240 -52.620491 -0.248815 -3.576873 1.747659 65.345802 8.255933 35.145016 56.957706 -8.960269 11.071345 -8.534408 -12.637552 52.503761 6.349198 -2.630037 -42.637150 -4.996088 -5.866716 0.024400 -52.283611 -7.085128 -4.009901 -5.834352 -12.288028 14.956575 6.718482 5.993767 1.638297 -31.743120 -6.475527 -2.150833 
10.767346 54.908924 18.854914 -6.925526 6.723297 -131.519196 23.793991 -4.687078 6.265193 -41.640392 -1.049584 2.110089 -26.254326 5.724061 1.378791 55.283363 0.234346 3.399822 -5.130234 -1.441212 0.239105 -62.629856 -15.728432 21.299065 -58.313251 9.107049 11.647016 8.524705 12.647240 -52.552132 -0.248815 -3.576873 1.747659 65.265739 8.830648 36.255833 57.796986 -9.065625 11.443974 -8.534408 -12.637552 52.562355 6.443247 -2.735142 -43.203781 -4.896235 -5.874012 0.016145 -53.077038 -7.414882 -4.292818 -6.188723 -12.399232 14.887683 6.890015 5.990119 1.673541 -31.192947 -6.290342 -1.925554 
10.749433 54.916508 18.857670 -7.021378 6.671128 -131.887268 23.832815 -4.787198 6.622236 -41.641571 -1.295723 2.247582 -26.051275 5.418329 1.337397 54.235641 0.749494 3.492615 -5.130234 -1.441212 0.239105 -62.445461 -15.073029 20.479225 -58.027367 9.079758 11.529827 8.524705 12.647240 -52.200573 -0.248815 -3.576873 1.747659 65.235352 9.367267 37.347805 58.603008 -9.147655 11.791143 -8.534408 -12.637552 52.718609 6.515481 -2.805931 -43.285934 -4.854132 -5.872245 -0.016703 -53.345463 -7.853137 -4.815456 -6.423592 -12.497888 14.608684 6.991458 5.991168 1.711577 -30.518545 -5.911282 -1.541505 
10.740820 54.913754 18.869038 -7.023350 6.747253 -132.334595 23.878023 -4.739341 7.085405 -41.622875 -1.490448 2.390499 -25.468380 4.892601 1.402996 52.106594 1.550615 3.854551 -5.130234 -1.441212 0.239105 -62.451172 -14.445561 19.249357 -57.443291 9.011039 11.268205 8.524705 12.647240 -51.604870 -0.248815 -3.576873 1.747659 65.114052 10.038846 38.378059 59.306828 -9.221088 12.104420 -8.534408 -12.637552 52.806499 6.461397 -2.706402 -43.134811 -4.807066 -5.872434 -0.011319 -53.491653 -8.199136 -5.251698 -6.755680 -12.360903 14.430482 7.195204 5.992086 1.710646 -29.850256 -5.466676 -1.152496 
10.747710 54.912025 18.871792 -7.009661 6.836327 -132.821762 23.976488 -4.688697 7.541901 -41.740177 -1.594419 2.514229 -25.352425 4.735888 1.246076 51.796478 1.350422 3.337816 -5.130234 -1.441212 0.239105 -62.507748 -13.597263 18.019693 -56.998371 8.959290 11.083674 8.524705 12.647240 -51.175182 -0.248815 -3.576873 1.747659 64.945885 10.602056 39.389545 59.986588 -9.274256 12.399852 -8.534408 -12.637552 52.923687 6.364447 -2.550050 -42.895985 -4.806328 -5.873519 -0.021008 -53.875458 -8.115053 -5.069308 -7.144800 -12.134843 14.469797 7.458802 5.992281 1.763675 -29.338699 -4.922291 -0.756621 
10.753912 54.912025 18.866625 -6.989786 6.884665 -133.225021 24.139933 -4.652942 7.888622 -41.945290 -1.670793 2.614375 -25.530857 4.810108 1.221422 51.884567 1.081914 3.249536 -5.130234 -1.441212 0.239105 -62.539604 -12.795707 16.694416 -56.468002 8.887934 10.849415 8.524705 12.647240 -51.263073 -0.248815 -3.576873 1.747659 64.807007 11.165837 40.381886 60.467209 -9.315317 12.621318 -8.534408 -12.637552 53.070171 6.321517 -2.405071 -42.820370 -4.770525 -5.877417 -0.024314 -54.363396 -8.072245 -4.933385 -7.460121 -11.952454 14.604141 7.694386 5.993283 1.775116 -29.142887 -4.456358 -0.484796 
10.750121 54.909271 18.860769 -7.033084 6.869853 -133.610413 24.230465 -4.652869 8.162306 -42.023190 -1.708039 2.688767 -25.666412 4.799529 1.250249 51.996559 0.928597 3.249655 -5.130234 -1.441212 0.239105 -62.570808 -12.190343 15.233861 -55.736591 8.781430 10.528693 8.524705 12.647240 -51.419323 -0.248815 -3.576873 1.747659 64.628059 11.767892 41.312984 60.840874 -9.343014 12.788637 -8.534408 -12.637552 53.050640 6.365164 -2.393685 -43.166252 -4.662025 -5.876110 -0.024222 -54.879940 -8.440482 -5.351446 -7.694077 -11.913157 14.659155 7.844938 5.988980 1.808558 -29.075211 -4.104729 -0.301706 
10.745989 54.912373 18.856636 -7.112849 6.792774 -133.966919 24.292561 -4.753078 8.487670 -42.081871 -1.797238 2.797195 -25.521524 4.490295 1.277091 52.076847 1.245844 3.223744 -5.130234 -1.441212 0.239105 -62.483467 -11.603184 14.002801 -55.006187 8.668143 10.221231 8.524705 12.647240 -51.458385 -0.248815 -3.576873 1.747659 64.549797 12.235188 41.983734 61.212570 -9.362928 12.956854 -8.534408 -12.637552 52.816269 6.447132 -2.464327 -43.376316 -4.583895 -5.876204 -0.050730 -55.206371 -8.635314 -5.579680 -7.828058 -11.968941 14.644258 7.844937 5.988981 1.808558 -28.795780 -3.875333 -0.139003 
